<?xml version="1.0" encoding="utf-8"?>
<!-- Generator: Adobe Illustrator 16.0.4, SVG Export Plug-In . SVG Version: 6.00 Build 0)  -->
<!DOCTYPE svg PUBLIC "-//W3C//DTD SVG 1.1//EN" "http://www.w3.org/Graphics/SVG/1.1/DTD/svg11.dtd">
<svg version="1.1" id="Layer_1" xmlns="http://www.w3.org/2000/svg" xmlns:xlink="http://www.w3.org/1999/xlink" x="0px" y="0px"
	 width="1024px" height="1024.094px" viewBox="0 0 1024 1024.094" enable-background="new 0 0 1024 1024.094" xml:space="preserve">
<g>
	<path fill="#FFFFFF" d="M0,1024.094C0,682.76,0,341.426,0,0c341.261,0,682.555,0,1024,0c0,341.302,0,682.698,0,1024.094
		C682.743,1024.094,341.388,1024.094,0,1024.094z M344.296,707.173c1.725,1.502,2.484,3.277,3.161,5.039
		c1.835,4.771,3.758,9.52,5.303,14.388c10.209,32.175,18.562,64.806,24.557,98.055c4.141,22.964,9.073,45.778,15.285,68.292
		c3.831,13.879,8.145,27.592,14.354,40.633c2.549,5.356,5.447,10.502,9.212,15.117c2.135,2.617,4.513,4.975,7.431,6.728
		c7.435,4.469,15.429,2.754,20.004-4.567c1.586-2.54,2.724-5.43,3.654-8.293c1.842-5.664,2.47-11.584,2.54-17.501
		c0.071-5.9-0.095-11.827-0.585-17.706c-1.015-12.142-3.146-24.089-7.392-35.572c-9.26-25.032-18.579-50.044-27.807-75.088
		c-5.913-16.045-12.026-32.025-17.486-48.225c-11.184-33.175-17.48-67.42-21.095-102.166c-1.455-13.984-2.545-28.027-3.179-42.07
		c-0.821-18.198-1.07-36.425-1.456-54.641c-0.098-4.628,0.229-9.264,0.345-13.896c0.324-12.943,0.521-25.892,0.993-38.829
		c0.499-13.735,1.16-27.467,1.926-41.189c0.873-15.64,1.887-31.271,2.938-46.9c1.212-18.021,2.562-36.035,3.801-54.055
		c1.316-19.137,2.691-38.27,3.821-57.417c1.09-18.507,2.051-37.024,2.787-55.548c0.564-14.213,0.817-28.443,0.97-42.669
		c0.101-9.428-0.22-18.86-0.357-28.291c-0.008-0.479-0.098-0.957-0.098-1.435c-0.009-12.473-0.102-24.946,0.016-37.418
		c0.102-10.881,0.085-21.757-1.36-32.554c-0.612-4.579-1.681-9.115-2.83-13.597c-0.954-3.724-2.563-7.232-4.823-10.391
		c-4.023-5.622-9.493-7.831-16.29-6.831c-9.594,1.413-15.555,6.893-18.02,16.222c-1.316,4.982-1.752,10.101-1.62,15.211
		c0.145,5.585,0.738,11.158,1.151,16.734c0.566,7.65,1.559,15.273,1.307,22.974c-0.127,3.865-0.673,7.641-2.028,11.273
		c-2.848,7.63-12.191,12.638-20.736,5.815c-3.037-2.424-5.526-5.325-7.81-8.413c-2.852-3.857-5.519-7.852-8.392-11.692
		c-2.2-2.941-4.473-5.848-6.937-8.568c-2.588-2.858-5.592-5.271-9.318-6.569c-5.119-1.783-10.055-1.223-14.853,1.191
		c-4.092,2.058-5.803,5.73-6.886,9.883c-1.096,4.205-1.522,8.487-1.594,12.813c-0.148,8.984,0.811,17.903,2.22,26.738
		c1.762,11.043,4.021,22.006,6.038,33.01c0.777,4.242,1.727,8.474,2.154,12.756c0.618,6.198,0.855,12.437,1.216,18.659
		c1.058,18.199,1.583,36.413,1.427,54.644c-0.077,8.951-0.22,17.902-0.389,26.852c-0.097,5.115-0.165,10.236-0.489,15.34
		c-1.095,17.226-2.126,34.459-3.516,51.662c-1.157,14.338-2.562,28.665-4.257,42.95c-2.203,18.569-4.704,37.107-7.253,55.634
		c-2.571,18.685-5.355,37.34-8.051,56.008c-2.856,19.773-5.771,39.539-8.562,59.322c-2.725,19.311-5.376,38.634-6.98,58.079
		c-0.685,8.305-0.814,16.608,0.396,24.884c0.487,3.333,1.236,6.599,2.823,9.613c2.779,5.282,6.952,6.784,12.417,4.421
		c2.971-1.285,5.53-3.189,7.866-5.407c3.605-3.425,6.88-7.134,9.774-11.183c10.967-15.336,18.38-32.103,20.936-50.921
		c1.851-13.619,4.178-27.176,5.924-40.808c2.03-15.854,3.804-31.744,5.417-47.647c1.307-12.881,2.305-25.796,3.267-38.708
		c1.246-16.735,2.417-33.479,3.438-50.229c0.748-12.283,1.336-24.578,1.754-36.875c0.576-16.935,1.061-33.875,1.338-50.817
		c0.341-20.783,0.449-41.57,0.617-62.356c0.162-19.985,0.815-39.949,2.066-59.899c0.69-11.018,1.661-21.995,3.113-32.936
		c1.303-9.812,4.9-18.828,9.607-27.442c0.837-1.531,1.907-2.967,3.059-4.281c0.823-0.94,1.886-1.738,2.978-2.358
		c1.558-0.885,3.179-0.618,4.39,0.674c0.853,0.91,1.62,2.017,2.054,3.176c0.779,2.085,1.411,4.246,1.872,6.423
		c2,9.434,2.193,19.051,2.49,28.624c0.347,11.181,0.252,22.369-0.283,33.557c-0.769,16.124-1.362,32.256-1.927,48.389
		c-0.477,13.578-0.901,27.159-1.175,40.742c-0.408,20.3-0.658,40.604-0.985,60.905c-0.312,19.342-0.522,38.688-0.992,58.025
		c-0.403,16.616-0.923,33.233-1.734,49.833c-0.742,15.164-1.852,30.312-2.97,45.454c-1.261,17.063-3.29,34.046-5.702,50.987
		c-3.158,22.169-7.335,44.134-12.697,65.879c-7.293,29.571-17.082,58.237-30.271,85.739c-9.474,19.755-19.741,39.092-29.947,58.466
		c-8.642,16.406-17.262,32.826-24.72,49.818c-7.089,16.153-13.019,32.678-15.304,50.285c-0.616,4.746-1.036,9.542-1.125,14.322
		c-0.074,3.98,0.375,7.99,2.099,11.707c2.039,4.397,5.209,6.171,9.991,5.71c3.416-0.329,6.597-1.426,9.468-3.192
		c3.805-2.34,7.625-4.723,11.119-7.491c11.346-8.989,21.169-19.49,29.638-31.214c2.608-3.609,4.965-7.48,6.873-11.501
		c3.01-6.344,5.767-12.83,8.235-19.404c6.534-17.41,10.69-35.479,14.396-53.657c1.405-6.888,2.449-13.879,4.333-20.635
		c6.566-23.552,13.662-46.949,21.575-70.09c1.653-4.835,3.585-9.577,5.448-14.338C341.97,709.884,342.451,708.308,344.296,707.173z
		 M703.282,434.085c0.097,0.002,0.194,0.003,0.292,0.005c0.089-8.476,0.204-16.95,0.259-25.426c0.038-5.925-0.337-11.83-1.312-17.68
		c-1.056-6.339-2.776-12.469-5.866-18.165c-4.074-7.511-9.867-12.899-18.296-15.126c-0.771-0.203-1.52-0.493-2.285-0.716
		c-11.109-3.218-22.51-4.79-33.991-5.718c-9.715-0.784-19.454-1.434-29.194-1.666c-11.186-0.267-22.397-0.318-33.576,0.11
		c-11.331,0.435-22.643,1.482-33.949,2.424c-10.368,0.863-20.622,2.555-30.743,4.971c-4.82,1.151-9.541,2.648-14.028,4.819
		c-3.944,1.908-6.786,4.796-8.063,9.018c-1.109,3.667-2.229,7.347-3.015,11.09c-2.177,10.343-3.233,20.839-4.118,31.362
		c-1.663,19.765-2.384,39.571-2.48,59.396c-0.062,12.626,0.259,25.258,0.579,37.884c0.373,14.715,1.42,29.378,4.081,43.888
		c2.603,14.199,6.42,28.034,12.336,41.239c4.205,9.389,9.339,18.203,16.159,25.968c7.348,8.365,16.146,14.484,26.967,17.503
		c2.154,0.6,4.307,1.22,6.422,1.945c6.345,2.178,12.712,4.301,18.988,6.663c3.894,1.466,7.563,3.48,10.828,6.104
		c7.022,5.646,7.896,11.669,2.679,18.739c-1.787,2.423-3.999,4.571-6.227,6.618c-2.271,2.087-5.094,3.305-8.115,3.936
		c-3.46,0.723-6.958,1.125-10.477,0.469c-6.438-1.198-12.887-2.354-19.293-3.707c-5.031-1.063-10.066-1.848-15.22-1.54
		c-5.427,0.323-9.927,2.505-12.973,7.082c-3.69,5.546-5.969,11.699-6.535,18.333c-0.438,5.127,1.595,10.463,7.7,13.138
		c1.602,0.702,3.266,1.301,4.95,1.772c3.725,1.042,7.563,1.194,11.407,1.284c10.101,0.237,20.121-0.794,30.149-1.765
		c5.57-0.538,11.15-1.007,16.76-0.523c1.954,0.168,3.868,0.511,5.312,1.9c2.786,2.677,5.201,5.665,6.545,9.352
		c1.372,3.77,0.94,7.35-1.941,10.226c-1.787,1.783-3.821,3.482-6.049,4.622c-3.54,1.812-7.255,3.369-11.038,4.603
		c-9.901,3.226-20.141,5.05-30.38,6.821c-13.071,2.261-26.163,4.403-39.221,6.744c-7.238,1.298-14.442,2.877-21.267,5.701
		c-2.782,1.152-5.481,2.622-7.987,4.295c-2.674,1.785-3.874,4.465-3.828,7.813c0.088,6.292,2.943,10.646,8.647,13.155
		c3.392,1.492,6.976,2.236,10.654,2.668c8.606,1.01,17.245,0.883,25.876,0.771c8.021-0.104,15.97,0.747,23.931,1.436
		c8.759,0.757,17.499,1.733,26.25,2.589c7.638,0.746,15.273,1.515,22.92,2.168c10.352,0.884,20.702,1.82,31.07,2.451
		c9.571,0.583,19.162,0.834,28.747,1.156c15.686,0.528,31.338,0.143,46.901-2.066c6.816-0.968,13.534-2.419,19.972-4.947
		c3.437-1.35,6.715-3.013,9.621-5.319c3.63-2.883,6.232-6.457,6.856-11.154c1.188-8.936-2.487-16.311-10.33-20.33
		c-4.782-2.452-9.91-3.578-15.163-4.22c-11.312-1.383-22.652-0.974-34.002-0.454c-8.782,0.402-17.582,0.652-26.335-0.584
		c-3.175-0.448-6.274-1.179-9.175-2.631c-2.061-1.031-3.747-2.449-4.905-4.438c-2.108-3.622-3.699-7.467-4.309-11.625
		c-0.759-5.185,0.907-9.518,5.242-12.557c1.813-1.271,3.844-2.319,5.911-3.115c2.374-0.913,4.874-1.549,7.363-2.105
		c7.831-1.751,15.831-2.155,23.799-2.738c6.695-0.489,13.414-0.672,20.104-1.221c5.892-0.482,11.802-1.079,17.492-2.795
		c2.585-0.78,5.174-1.733,7.535-3.022c4.059-2.215,6.442-5.668,6.428-10.478c-0.005-1.598-0.003-3.2-0.125-4.792
		c-0.55-7.16-4.278-11.978-11.091-14.084c-3.174-0.981-6.552-1.43-9.874-1.774c-6.565-0.683-13.095,0.306-19.604,0.964
		c-8.586,0.867-17.126,2.189-25.712,3.065c-5.722,0.584-11.458,0.607-17.217-0.244c-8.709-1.287-13.895-6.678-17.323-14.213
		c-2.223-4.887-1.244-9.356,2.322-13.304c2.277-2.521,4.915-4.648,7.973-6.07c4.631-2.152,9.283-4.345,14.117-5.95
		c7.576-2.517,15.322-4.518,22.976-6.81c6.273-1.88,12.536-3.797,18.759-5.831c3.745-1.226,6.596-3.654,9.026-6.816
		c7.637-9.937,11.541-21.256,13.037-33.553c1.241-10.203,1.085-20.441,0.59-30.662c-0.55-11.342-1.051-22.674-0.704-34.03
		c0.029-0.957,0.159-1.972-0.094-2.864c-0.456-1.605-0.218-3.126,0.005-4.712c1.495-10.66,1.387-21.343,0.624-32.061
		c-0.429-6.028-0.855-12.056-0.581-18.146C702.951,457.105,703.024,445.59,703.282,434.085z M750.639,829.428
		c-0.099,0.002-0.197,0.004-0.296,0.006c0.376,19.822,0.698,39.646,1.145,59.468c0.317,14.079,1.529,28.085,3.841,41.992
		c2.163,13.021,9.117,22.998,19.397,30.878c2.823,2.165,6.024,3.673,9.572,4.204c7.116,1.066,11.264-1.372,13.859-6.822
		c1.432-3.004,2.444-6.252,3.284-9.482c1.816-6.994,2.568-14.198,2.714-21.372c0.265-13.107,0.293-26.234-0.104-39.336
		c-0.483-15.972-1.504-31.928-2.297-47.89c-0.683-13.729-1.331-27.46-2.068-41.186c-0.695-12.93-1.473-25.855-2.244-38.78
		c-0.324-5.425-0.693-10.849-1.1-16.269c-0.858-11.478-1.738-22.954-2.644-34.428c-0.704-8.926-1.427-17.85-2.199-26.768
		c-0.829-9.557-1.717-19.107-2.597-28.659c-0.704-7.642-1.406-15.283-2.159-22.919c-1.1-11.138-2.419-22.257-3.33-33.407
		c-1.549-18.968-2.271-37.98-2.385-57.009c-0.189-31.987-0.201-63.976-0.436-95.963c-0.079-10.865-0.523-21.732-0.944-32.593
		c-0.551-14.229-1.913-28.388-4.06-42.47c-1.955-12.824-4.707-25.46-8.984-37.725c-3.595-10.31-8.252-20.101-14.614-29.034
		c-9.151-12.852-21.001-22.261-35.694-28.047c-8.081-3.183-16.475-5.185-25.096-6.047c-5.234-0.523-10.531-0.881-15.777-0.688
		c-5.093,0.188-10.177,1.042-15.229,1.834c-20.056,3.146-40.065,6.575-60.273,8.691c-12.748,1.334-25.504,2.07-38.306,1.432
		c-6.879-0.341-13.686-1.321-20.201-3.742c-3.173-1.179-6.015-2.866-8.65-5.031c-6.68-5.488-7.64-19.995,1.409-25.567
		c2.988-1.84,5.966-3.77,9.152-5.201c16.635-7.474,34.029-11.962,52.295-12.877c15.861-0.794,31.643,0.446,47.405,1.934
		c15.914,1.501,31.809,3.212,47.716,4.799c10.841,1.08,21.708,1.223,32.577,0.598c6.073-0.35,12.097-1.181,17.985-2.765
		c5.651-1.521,10.698-4.209,15.061-8.123c4.568-4.102,8.258-8.897,11.127-14.326c3.762-7.114,6.368-14.644,8.032-22.504
		c3.318-15.666,3.622-31.405,0.887-47.177c-1.427-8.223-3.789-16.164-7.659-23.624c-4.433-8.55-11.153-14.235-20.425-16.947
		c-5.403-1.581-10.899-2.568-16.515-2.717c-10.227-0.271-20.455-0.44-30.685-0.615c-6.235-0.106-12.473-0.17-18.709-0.208
		c-21.43-0.132-42.859-0.091-64.267,1.036c-16.762,0.883-33.52,1.884-50.204,3.779c-9.848,1.119-19.669,2.472-29.325,4.778
		c-4.508,1.076-8.942,2.375-13.138,4.437c-4.634,2.278-6.325,6.065-6.019,10.984c0.059,0.953,0.203,1.911,0.417,2.842
		c2.715,11.824,9.271,20.903,19.597,27.249c2.901,1.783,6.13,2.813,9.473,3.223c4.119,0.504,8.273,0.899,12.42,0.964
		c9.603,0.151,19.165-0.671,28.706-1.69c10.65-1.137,21.291-2.351,31.936-3.54c10.009-1.119,20.006-2.361,30.028-3.342
		c9.066-0.887,18.165-1.434,27.239-2.239c9.278-0.824,18.53-0.58,27.757,0.512c3.81,0.451,7.569,1.273,11.146,2.747
		c2.391,0.985,4.663,2.208,6.271,4.285c2.865,3.699,5.036,7.761,6.104,12.368c1.428,6.159-0.599,11.101-5.56,14.715
		c-2.422,1.764-5.205,3.139-7.997,4.263c-6.877,2.768-14.166,3.85-21.485,4.688c-9.549,1.093-19.141,1.339-28.737,1.235
		c-11.353-0.122-22.703-0.471-34.056-0.533c-16.949-0.094-33.893,0.016-50.826,1.076c-11.823,0.741-23.587,1.863-35.229,4.054
		c-9.456,1.778-18.678,4.388-27.395,8.543c-9.859,4.701-18.218,11.202-24.236,20.476c-4.146,6.387-6.733,13.385-8.422,20.77
		c-1.87,8.176-2.12,16.466-2.006,24.801c0.087,6.289,1.059,12.434,3.025,18.385c3.399,10.292,9.755,18.232,19.263,23.568
		c5.345,2.999,11.067,4.965,17.034,6.271c14.191,3.11,28.571,3.239,42.967,2.422c10.371-0.589,20.72-1.576,31.07-2.475
		c8.122-0.706,16.237-1.511,24.348-2.341c11.615-1.189,23.268-1.816,34.931-2.106c8.639-0.215,17.258,0.436,25.815,1.663
		c7.146,1.025,14.107,2.79,20.74,5.706c13.021,5.72,21.948,15.271,26.378,28.789c1.386,4.229,2.322,8.66,2.958,13.072
		c2.99,20.735,5.174,41.567,6.607,62.465c1.171,17.061,2.039,34.145,2.831,51.227c0.525,11.336,0.78,22.686,0.976,34.033
		c0.233,13.592,0.282,27.187,0.395,40.78c0.084,10.236,0.136,20.473,0.212,30.707c0.123,16.631,0.184,33.262,0.4,49.89
		c0.235,18.064,0.564,36.129,0.958,54.189c0.198,9.108,0.562,18.214,0.974,27.314c0.427,9.422,0.786,18.855,1.564,28.251
		c1.268,15.304,1.748,30.64,2.184,45.973C750.641,801.274,750.526,815.354,750.639,829.428z M409.168,423.078
		c-0.152,0.002-0.304,0.003-0.456,0.005c0.276,13.584,0.508,27.168,0.843,40.75c0.249,10.064,0.558,20.128,0.976,30.188
		c0.417,10.06,0.801,20.127,1.56,30.165c1.29,17.052,2.74,34.092,4.357,51.115c1.209,12.728,2.592,25.446,4.247,38.123
		c1.984,15.212,4.298,30.381,6.557,45.556c1.083,7.271,2.313,14.521,4.589,21.545c1.88,5.806,4.231,11.389,7.758,16.41
		c2.13,3.031,4.594,5.756,7.78,7.714c5.651,3.472,11.519,2.962,16.197-1.719c1.89-1.89,3.446-4.208,4.763-6.553
		c3.332-5.936,4.845-12.489,5.839-19.155c1.299-8.705,1.793-17.473,2.041-26.274c0.421-14.887-0.182-29.734-1.459-44.55
		c-0.904-10.507-2.138-20.989-3.44-31.456c-1.342-10.782-2.877-21.544-4.448-32.296c-1.643-11.227-3.446-22.431-5.15-33.647
		c-2.112-13.905-4.265-27.804-6.27-41.726c-1.526-10.598-2.997-21.208-4.218-31.844c-1.277-11.114-2.187-22.27-3.33-33.399
		c-1.553-15.121-1.772-30.307-2.222-45.478c-0.16-5.422,0.221-10.859,0.337-16.291c0.215-10.082,1.046-20.088,2.89-30.031
		c1.251-6.747,2.344-13.576,2.761-20.414c0.923-15.149,1.595-30.323,1.966-45.497c0.434-17.736,0.641-35.483-0.308-53.223
		c-0.58-10.862-1.373-21.693-3.209-32.426c-0.918-5.364-2.103-10.666-3.945-15.796c-1.138-3.169-2.547-6.216-4.652-8.883
		c-4.242-5.369-10.896-5.969-15.938-1.332c-1.275,1.173-2.486,2.565-3.268,4.092c-1.448,2.83-2.813,5.755-3.764,8.781
		c-2.988,9.518-4.035,19.397-4.718,29.284c-0.748,10.84-1.228,21.702-1.049,32.582c0.311,18.86,0.601,37.721,0.781,56.582
		c0.087,9.112,0.088,18.233-0.202,27.341c-0.29,9.101-1.045,18.186-1.499,27.28c-0.47,9.418-0.857,18.839-1.22,28.262
		c-0.521,13.57-1.151,27.141-1.426,40.717C408.979,399.409,409.168,411.245,409.168,423.078z"/>
	<path fill-rule="evenodd" clip-rule="evenodd" d="M344.296,707.173c-1.845,1.135-2.326,2.711-2.898,4.174
		c-1.863,4.761-3.795,9.503-5.448,14.338c-7.913,23.141-15.009,46.538-21.575,70.09c-1.884,6.756-2.928,13.747-4.333,20.635
		c-3.706,18.179-7.863,36.247-14.396,53.657c-2.468,6.574-5.225,13.061-8.235,19.404c-1.907,4.021-4.265,7.892-6.873,11.501
		c-8.468,11.724-18.292,22.225-29.638,31.214c-3.494,2.769-7.313,5.151-11.119,7.491c-2.871,1.767-6.052,2.863-9.468,3.192
		c-4.782,0.461-7.953-1.312-9.991-5.71c-1.723-3.717-2.172-7.727-2.099-11.707c0.089-4.78,0.509-9.576,1.125-14.322
		c2.285-17.607,8.215-34.132,15.304-50.285c7.458-16.992,16.078-33.412,24.72-49.818c10.206-19.374,20.473-38.711,29.947-58.466
		c13.189-27.502,22.978-56.168,30.271-85.739c5.362-21.745,9.539-43.71,12.697-65.879c2.412-16.941,4.441-33.924,5.702-50.987
		c1.118-15.142,2.228-30.29,2.97-45.454c0.812-16.6,1.331-33.217,1.734-49.833c0.47-19.338,0.68-38.684,0.992-58.025
		c0.327-20.302,0.577-40.605,0.985-60.905c0.273-13.583,0.698-27.164,1.175-40.742c0.564-16.133,1.158-32.265,1.927-48.389
		c0.535-11.188,0.63-22.376,0.283-33.557c-0.297-9.573-0.49-19.19-2.49-28.624c-0.461-2.177-1.093-4.338-1.872-6.423
		c-0.434-1.159-1.201-2.266-2.054-3.176c-1.211-1.292-2.832-1.559-4.39-0.674c-1.092,0.62-2.154,1.418-2.978,2.358
		c-1.151,1.314-2.222,2.75-3.059,4.281c-4.707,8.614-8.305,17.63-9.607,27.442c-1.452,10.94-2.423,21.918-3.113,32.936
		c-1.251,19.95-1.904,39.914-2.066,59.899c-0.168,20.786-0.276,41.573-0.617,62.356c-0.277,16.942-0.762,33.883-1.338,50.817
		c-0.418,12.297-1.006,24.592-1.754,36.875c-1.021,16.75-2.192,33.493-3.438,50.229c-0.962,12.912-1.96,25.827-3.267,38.708
		c-1.612,15.903-3.386,31.793-5.417,47.647c-1.747,13.632-4.074,27.188-5.924,40.808c-2.556,18.818-9.969,35.585-20.936,50.921
		c-2.894,4.049-6.169,7.758-9.774,11.183c-2.336,2.218-4.896,4.122-7.866,5.407c-5.465,2.363-9.638,0.861-12.417-4.421
		c-1.587-3.015-2.336-6.28-2.823-9.613c-1.21-8.275-1.082-16.579-0.396-24.884c1.604-19.445,4.256-38.769,6.98-58.079
		c2.791-19.783,5.706-39.549,8.562-59.322c2.696-18.668,5.48-37.323,8.051-56.008c2.549-18.526,5.051-37.064,7.253-55.634
		c1.694-14.285,3.1-28.612,4.257-42.95c1.389-17.203,2.42-34.437,3.516-51.662c0.324-5.104,0.392-10.225,0.489-15.34
		c0.168-8.949,0.312-17.9,0.389-26.852c0.156-18.23-0.369-36.444-1.427-54.644c-0.361-6.223-0.598-12.461-1.216-18.659
		c-0.427-4.282-1.376-8.514-2.154-12.756c-2.016-11.004-4.275-21.967-6.038-33.01c-1.41-8.835-2.369-17.754-2.22-26.738
		c0.072-4.326,0.499-8.608,1.594-12.813c1.083-4.152,2.793-7.825,6.886-9.883c4.798-2.414,9.734-2.975,14.853-1.191
		c3.726,1.298,6.73,3.711,9.318,6.569c2.463,2.721,4.736,5.627,6.937,8.568c2.873,3.841,5.54,7.835,8.392,11.692
		c2.283,3.088,4.772,5.989,7.81,8.413c8.545,6.822,17.889,1.814,20.736-5.815c1.355-3.633,1.901-7.408,2.028-11.273
		c0.252-7.7-0.74-15.323-1.307-22.974c-0.413-5.576-1.007-11.149-1.151-16.734c-0.132-5.11,0.304-10.229,1.62-15.211
		c2.465-9.329,8.426-14.809,18.02-16.222c6.797-1,12.267,1.209,16.29,6.831c2.26,3.158,3.869,6.667,4.823,10.391
		c1.149,4.481,2.218,9.018,2.83,13.597c1.445,10.797,1.462,21.673,1.36,32.554c-0.117,12.472-0.024,24.945-0.016,37.418
		c0,0.478,0.09,0.956,0.098,1.435c0.138,9.431,0.458,18.863,0.357,28.291c-0.152,14.226-0.405,28.456-0.97,42.669
		c-0.736,18.523-1.697,37.041-2.787,55.548c-1.13,19.147-2.505,38.28-3.821,57.417c-1.239,18.02-2.589,36.033-3.801,54.055
		c-1.052,15.629-2.065,31.261-2.938,46.9c-0.766,13.723-1.427,27.454-1.926,41.189c-0.472,12.938-0.669,25.886-0.993,38.829
		c-0.116,4.632-0.442,9.268-0.345,13.896c0.386,18.216,0.635,36.442,1.456,54.641c0.634,14.043,1.724,28.086,3.179,42.07
		c3.614,34.746,9.911,68.991,21.095,102.166c5.46,16.199,11.573,32.18,17.486,48.225c9.228,25.044,18.547,50.056,27.807,75.088
		c4.246,11.483,6.377,23.431,7.392,35.572c0.49,5.879,0.656,11.806,0.585,17.706c-0.07,5.917-0.698,11.837-2.54,17.501
		c-0.931,2.863-2.068,5.753-3.654,8.293c-4.575,7.321-12.569,9.036-20.004,4.567c-2.918-1.753-5.296-4.11-7.431-6.728
		c-3.765-4.615-6.663-9.761-9.212-15.117c-6.21-13.041-10.523-26.754-14.354-40.633c-6.212-22.514-11.145-45.328-15.285-68.292
		c-5.995-33.249-14.348-65.88-24.557-98.055c-1.545-4.868-3.468-9.617-5.303-14.388C346.78,710.45,346.021,708.675,344.296,707.173z
		"/>
	<path fill-rule="evenodd" clip-rule="evenodd" d="M703.282,434.085c-0.258,11.505-0.331,23.021-0.848,34.514
		c-0.274,6.09,0.152,12.117,0.581,18.146c0.763,10.718,0.871,21.4-0.624,32.061c-0.223,1.586-0.461,3.106-0.005,4.712
		c0.253,0.893,0.123,1.907,0.094,2.864c-0.347,11.356,0.154,22.688,0.704,34.03c0.495,10.221,0.651,20.459-0.59,30.662
		c-1.496,12.297-5.4,23.616-13.037,33.553c-2.431,3.162-5.281,5.591-9.026,6.816c-6.223,2.034-12.485,3.951-18.759,5.831
		c-7.653,2.292-15.399,4.293-22.976,6.81c-4.834,1.605-9.486,3.798-14.117,5.95c-3.058,1.422-5.695,3.549-7.973,6.07
		c-3.566,3.947-4.545,8.417-2.322,13.304c3.429,7.535,8.614,12.926,17.323,14.213c5.759,0.852,11.495,0.828,17.217,0.244
		c8.586-0.876,17.126-2.198,25.712-3.065c6.509-0.658,13.038-1.646,19.604-0.964c3.322,0.345,6.7,0.793,9.874,1.774
		c6.812,2.106,10.541,6.924,11.091,14.084c0.122,1.592,0.12,3.194,0.125,4.792c0.015,4.81-2.369,8.263-6.428,10.478
		c-2.361,1.289-4.95,2.242-7.535,3.022c-5.69,1.716-11.601,2.312-17.492,2.795c-6.689,0.549-13.408,0.731-20.104,1.221
		c-7.968,0.583-15.968,0.987-23.799,2.738c-2.489,0.557-4.989,1.192-7.363,2.105c-2.067,0.796-4.098,1.845-5.911,3.115
		c-4.335,3.039-6.001,7.372-5.242,12.557c0.609,4.158,2.2,8.003,4.309,11.625c1.158,1.988,2.845,3.406,4.905,4.438
		c2.9,1.452,6,2.183,9.175,2.631c8.753,1.236,17.553,0.986,26.335,0.584c11.35-0.52,22.689-0.929,34.002,0.454
		c5.253,0.642,10.381,1.768,15.163,4.22c7.843,4.02,11.518,11.395,10.33,20.33c-0.624,4.697-3.227,8.271-6.856,11.154
		c-2.906,2.307-6.185,3.97-9.621,5.319c-6.438,2.528-13.155,3.979-19.972,4.947c-15.563,2.209-31.216,2.595-46.901,2.066
		c-9.585-0.322-19.176-0.573-28.747-1.156c-10.368-0.631-20.719-1.567-31.07-2.451c-7.646-0.653-15.282-1.422-22.92-2.168
		c-8.751-0.855-17.491-1.832-26.25-2.589c-7.961-0.688-15.91-1.539-23.931-1.436c-8.631,0.111-17.27,0.238-25.876-0.771
		c-3.679-0.432-7.263-1.176-10.654-2.668c-5.704-2.51-8.56-6.863-8.647-13.155c-0.046-3.349,1.154-6.028,3.828-7.813
		c2.506-1.673,5.205-3.143,7.987-4.295c6.824-2.824,14.028-4.403,21.267-5.701c13.058-2.341,26.149-4.483,39.221-6.744
		c10.239-1.771,20.479-3.596,30.38-6.821c3.783-1.233,7.498-2.791,11.038-4.603c2.228-1.14,4.262-2.839,6.049-4.622
		c2.882-2.876,3.313-6.456,1.941-10.226c-1.344-3.687-3.759-6.675-6.545-9.352c-1.444-1.39-3.358-1.732-5.312-1.9
		c-5.609-0.483-11.189-0.015-16.76,0.523c-10.028,0.971-20.049,2.002-30.149,1.765c-3.844-0.09-7.683-0.242-11.407-1.284
		c-1.685-0.472-3.349-1.07-4.95-1.772c-6.105-2.675-8.139-8.011-7.7-13.138c0.566-6.634,2.845-12.787,6.535-18.333
		c3.046-4.577,7.546-6.759,12.973-7.082c5.153-0.308,10.188,0.477,15.22,1.54c6.406,1.353,12.854,2.509,19.293,3.707
		c3.519,0.656,7.017,0.254,10.477-0.469c3.021-0.631,5.844-1.849,8.115-3.936c2.228-2.047,4.439-4.195,6.227-6.618
		c5.217-7.07,4.344-13.094-2.679-18.739c-3.265-2.624-6.935-4.639-10.828-6.104c-6.276-2.362-12.644-4.485-18.988-6.663
		c-2.115-0.726-4.268-1.346-6.422-1.945c-10.82-3.019-19.619-9.138-26.967-17.503c-6.82-7.765-11.954-16.579-16.159-25.968
		c-5.916-13.205-9.733-27.04-12.336-41.239c-2.661-14.51-3.708-29.173-4.081-43.888c-0.32-12.626-0.641-25.258-0.579-37.884
		c0.097-19.824,0.817-39.631,2.48-59.396c0.885-10.523,1.941-21.02,4.118-31.362c0.786-3.743,1.905-7.423,3.015-11.09
		c1.277-4.222,4.119-7.109,8.063-9.018c4.487-2.171,9.208-3.668,14.028-4.819c10.121-2.416,20.375-4.107,30.743-4.971
		c11.307-0.941,22.618-1.989,33.949-2.424c11.179-0.429,22.391-0.377,33.576-0.11c9.74,0.232,19.479,0.882,29.194,1.666
		c11.481,0.928,22.882,2.5,33.991,5.718c0.766,0.223,1.514,0.513,2.285,0.716c8.429,2.227,14.222,7.615,18.296,15.126
		c3.09,5.696,4.811,11.826,5.866,18.165c0.975,5.85,1.35,11.755,1.312,17.68c-0.055,8.476-0.17,16.95-0.259,25.426
		C703.477,434.088,703.379,434.087,703.282,434.085z M601.84,474.296c0.076,1.065,0.048,2.521,0.303,3.926
		c1.077,5.948,4.506,9.219,10.366,10.452c3.033,0.64,5.8,0.205,8.203-1.532c3.356-2.427,6.748-4.893,9.7-7.776
		c13.602-13.289,24.571-28.563,33.367-45.396c2.813-5.385,5.131-10.998,6.539-16.951c0.706-2.985,1.019-5.98,0.677-9.028
		c-0.519-4.619-2.943-7.759-7.511-8.827c-2.299-0.539-4.739-0.788-7.098-0.697c-6.621,0.256-12.485,2.476-17.179,7.354
		c-1.326,1.379-2.761,2.656-4.074,4.049c-7.943,8.417-14.476,17.864-20.239,27.867c-4.318,7.492-8.08,15.24-10.675,23.514
		C602.926,465.375,601.971,469.572,601.84,474.296z M596.425,611.272c8.334,0.104,16.294-0.639,24.174-2.016
		c3.76-0.656,7.467-1.749,11.108-2.92c5.72-1.838,8.327-6.13,8.734-11.934c0.284-4.044-0.232-7.959-1.798-11.74
		c-1.854-4.478-4.377-8.527-7.516-12.197c-4.736-5.538-10.283-10.008-16.938-13.098c-5.152-2.393-9.563-2.137-14.046,1.907
		c-8.215,7.412-16.118,15.083-22.869,23.858c-2.43,3.158-4.553,6.565-6.642,9.967c-1.424,2.317-2.389,4.869-2.767,7.613
		c-0.521,3.771,0.738,6.185,4.233,7.633c1.318,0.545,2.732,0.906,4.135,1.193C582.998,610.926,589.847,611.39,596.425,611.272z
		 M569.767,503.92c-3.979-0.054-7.558,1.048-10.594,3.689c-1.203,1.047-2.413,2.089-3.555,3.201
		c-10.269,9.998-18.455,21.55-25.268,34.104c-2.821,5.199-5.17,10.612-6.765,16.325c-1.121,4.018-1.884,8.087-1.393,12.286
		c0.6,5.113,3.071,8.954,7.68,11.4c3.387,1.799,6.608,1.924,9.933-0.237c3.375-2.194,6.353-4.813,9.076-7.744
		c5.23-5.632,9.771-11.796,13.909-18.258c5.864-9.163,10.949-18.719,14.55-29.025c1.534-4.395,2.724-8.896,2.932-13.52
		C580.605,508.757,577.521,503.695,569.767,503.92z M678.501,477.094c-1.581-1.026-3.035-1.074-4.45-0.981
		c-2.223,0.146-4.45,0.367-6.647,0.723c-8.743,1.416-15.291,6.037-19.73,13.686c-3.436,5.922-4.987,12.394-5.535,19.141
		c-0.796,9.811,0.316,19.44,3.074,28.865c1.663,5.685,3.822,11.193,7.43,15.971c1.235,1.636,2.665,3.215,4.294,4.438
		c3.38,2.536,7.033,2.259,9.894-0.821c1.603-1.726,3-3.767,4.015-5.893c3.958-8.298,5.94-17.195,6.808-26.265
		c0.349-3.636,0.709-7.269,1.146-10.897c0.361-3.004,0.712-6.021,0.81-9.041c0.134-4.14,0.162-8.295-0.017-12.432
		C679.35,488.033,678.868,482.489,678.501,477.094z M570.121,433.84c3.804,0.13,7.332-0.904,10.61-2.596
		c10.36-5.341,17.564-13.583,21.82-24.396c1.06-2.692,1.49-5.541,1.229-8.455c-0.34-3.805-2.098-6.745-5.67-8.194
		c-2.031-0.823-4.264-1.313-6.45-1.55c-3.674-0.396-7.321,0.205-10.917,0.991c-7.524,1.646-14.783,3.961-21.156,8.49
		c-3.016,2.144-5.709,4.591-7.689,7.765c-2.541,4.074-2.922,8.41-1.312,12.843c1.971,5.424,5.504,9.675,10.462,12.65
		C563.829,433.056,566.859,433.996,570.121,433.84z M516.301,479.103c0,2.233-0.149,4.479,0.035,6.698
		c0.277,3.329,0.643,6.665,1.252,9.946c0.403,2.18,1.163,4.386,3.002,5.854c4.857,3.876,11.059,5.363,16.276-1.356
		c1.982-2.554,3.395-5.415,4.366-8.465c4.71-14.788,5.206-29.758,1.592-44.833c-0.589-2.454-1.642-4.827-2.731-7.118
		c-0.671-1.411-1.682-2.729-2.779-3.854c-2.354-2.413-5.237-2.965-8.345-1.658c-3.838,1.614-6.819,4.096-7.844,8.386
		c-0.296,1.239-0.714,2.449-1.001,3.689C517.633,457.152,516.316,468.052,516.301,479.103z"/>
	<path fill-rule="evenodd" clip-rule="evenodd" d="M750.639,829.428c-0.112-14.073,0.002-28.153-0.397-42.219
		c-0.436-15.333-0.916-30.669-2.184-45.973c-0.778-9.396-1.138-18.829-1.564-28.251c-0.412-9.101-0.775-18.206-0.974-27.314
		c-0.394-18.061-0.723-36.125-0.958-54.189c-0.217-16.628-0.277-33.259-0.4-49.89c-0.076-10.234-0.128-20.471-0.212-30.707
		c-0.112-13.594-0.161-27.188-0.395-40.78c-0.195-11.348-0.45-22.697-0.976-34.033c-0.792-17.082-1.66-34.166-2.831-51.227
		c-1.434-20.897-3.617-41.729-6.607-62.465c-0.636-4.412-1.572-8.843-2.958-13.072c-4.43-13.519-13.357-23.069-26.378-28.789
		c-6.633-2.916-13.594-4.681-20.74-5.706c-8.558-1.228-17.177-1.878-25.815-1.663c-11.663,0.29-23.315,0.917-34.931,2.106
		c-8.11,0.83-16.226,1.635-24.348,2.341c-10.351,0.898-20.699,1.886-31.07,2.475c-14.396,0.817-28.775,0.688-42.967-2.422
		c-5.967-1.307-11.689-3.272-17.034-6.271c-9.508-5.336-15.863-13.276-19.263-23.568c-1.967-5.951-2.938-12.096-3.025-18.385
		c-0.114-8.335,0.136-16.625,2.006-24.801c1.688-7.385,4.276-14.383,8.422-20.77c6.019-9.273,14.377-15.774,24.236-20.476
		c8.717-4.155,17.938-6.765,27.395-8.543c11.642-2.19,23.405-3.312,35.229-4.054c16.934-1.061,33.877-1.17,50.826-1.076
		c11.353,0.062,22.703,0.411,34.056,0.533c9.597,0.104,19.188-0.143,28.737-1.235c7.319-0.838,14.608-1.92,21.485-4.688
		c2.792-1.124,5.575-2.499,7.997-4.263c4.961-3.614,6.987-8.556,5.56-14.715c-1.068-4.607-3.239-8.669-6.104-12.368
		c-1.607-2.077-3.88-3.3-6.271-4.285c-3.576-1.474-7.336-2.296-11.146-2.747c-9.227-1.092-18.479-1.336-27.757-0.512
		c-9.074,0.806-18.173,1.353-27.239,2.239c-10.022,0.98-20.02,2.223-30.028,3.342c-10.645,1.189-21.285,2.403-31.936,3.54
		c-9.541,1.02-19.104,1.842-28.706,1.69c-4.146-0.064-8.301-0.46-12.42-0.964c-3.343-0.409-6.571-1.439-9.473-3.223
		c-10.325-6.346-16.882-15.425-19.597-27.249c-0.214-0.931-0.358-1.889-0.417-2.842c-0.307-4.919,1.385-8.706,6.019-10.984
		c4.195-2.062,8.63-3.36,13.138-4.437c9.656-2.307,19.478-3.659,29.325-4.778c16.685-1.896,33.442-2.896,50.204-3.779
		c21.407-1.127,42.837-1.168,64.267-1.036c6.236,0.038,12.474,0.102,18.709,0.208c10.229,0.175,20.458,0.344,30.685,0.615
		c5.615,0.148,11.111,1.136,16.515,2.717c9.271,2.712,15.992,8.397,20.425,16.947c3.87,7.46,6.232,15.401,7.659,23.624
		c2.735,15.771,2.432,31.511-0.887,47.177c-1.664,7.86-4.271,15.39-8.032,22.504c-2.869,5.429-6.559,10.225-11.127,14.326
		c-4.362,3.914-9.409,6.603-15.061,8.123c-5.889,1.584-11.912,2.415-17.985,2.765c-10.869,0.625-21.736,0.482-32.577-0.598
		c-15.907-1.587-31.802-3.298-47.716-4.799c-15.763-1.487-31.544-2.728-47.405-1.934c-18.266,0.915-35.66,5.403-52.295,12.877
		c-3.187,1.432-6.164,3.361-9.152,5.201c-9.049,5.572-8.089,20.079-1.409,25.567c2.636,2.165,5.478,3.853,8.65,5.031
		c6.516,2.421,13.322,3.401,20.201,3.742c12.802,0.639,25.558-0.098,38.306-1.432c20.208-2.116,40.218-5.546,60.273-8.691
		c5.052-0.792,10.136-1.646,15.229-1.834c5.246-0.193,10.543,0.164,15.777,0.688c8.621,0.862,17.015,2.864,25.096,6.047
		c14.693,5.786,26.543,15.195,35.694,28.047c6.362,8.934,11.02,18.725,14.614,29.034c4.277,12.265,7.029,24.9,8.984,37.725
		c2.146,14.082,3.509,28.241,4.06,42.47c0.421,10.86,0.865,21.728,0.944,32.593c0.234,31.987,0.246,63.976,0.436,95.963
		c0.113,19.028,0.836,38.041,2.385,57.009c0.911,11.15,2.23,22.27,3.33,33.407c0.753,7.636,1.455,15.277,2.159,22.919
		c0.88,9.552,1.768,19.103,2.597,28.659c0.772,8.918,1.495,17.842,2.199,26.768c0.905,11.474,1.785,22.95,2.644,34.428
		c0.406,5.42,0.775,10.844,1.1,16.269c0.771,12.925,1.549,25.851,2.244,38.78c0.737,13.726,1.386,27.456,2.068,41.186
		c0.793,15.962,1.813,31.918,2.297,47.89c0.396,13.102,0.368,26.229,0.104,39.336c-0.146,7.174-0.897,14.378-2.714,21.372
		c-0.84,3.23-1.853,6.479-3.284,9.482c-2.596,5.45-6.743,7.889-13.859,6.822c-3.548-0.531-6.749-2.039-9.572-4.204
		c-10.28-7.88-17.234-17.856-19.397-30.878c-2.312-13.907-3.523-27.913-3.841-41.992c-0.446-19.821-0.769-39.646-1.145-59.468
		C750.441,829.432,750.54,829.43,750.639,829.428z"/>
	<path fill-rule="evenodd" clip-rule="evenodd" d="M409.168,423.078c0-11.833-0.189-23.669,0.05-35.498
		c0.274-13.576,0.904-27.146,1.426-40.717c0.362-9.423,0.75-18.844,1.22-28.262c0.454-9.095,1.209-18.18,1.499-27.28
		c0.29-9.107,0.289-18.229,0.202-27.341c-0.181-18.861-0.471-37.722-0.781-56.582c-0.179-10.88,0.301-21.742,1.049-32.582
		c0.683-9.887,1.729-19.767,4.718-29.284c0.95-3.026,2.315-5.951,3.764-8.781c0.781-1.526,1.992-2.919,3.268-4.092
		c5.043-4.637,11.696-4.037,15.938,1.332c2.105,2.667,3.515,5.714,4.652,8.883c1.843,5.13,3.027,10.432,3.945,15.796
		c1.836,10.732,2.629,21.563,3.209,32.426c0.948,17.739,0.741,35.486,0.308,53.223c-0.371,15.174-1.043,30.348-1.966,45.497
		c-0.417,6.838-1.51,13.667-2.761,20.414c-1.844,9.943-2.675,19.949-2.89,30.031c-0.116,5.432-0.497,10.869-0.337,16.291
		c0.449,15.171,0.669,30.356,2.222,45.478c1.144,11.13,2.053,22.285,3.33,33.399c1.221,10.636,2.691,21.246,4.218,31.844
		c2.005,13.922,4.157,27.82,6.27,41.726c1.704,11.217,3.508,22.421,5.15,33.647c1.571,10.752,3.106,21.514,4.448,32.296
		c1.303,10.467,2.536,20.949,3.44,31.456c1.277,14.815,1.88,29.663,1.459,44.55c-0.248,8.802-0.742,17.569-2.041,26.274
		c-0.994,6.666-2.507,13.22-5.839,19.155c-1.316,2.345-2.873,4.663-4.763,6.553c-4.679,4.681-10.546,5.19-16.197,1.719
		c-3.187-1.958-5.65-4.683-7.78-7.714c-3.526-5.021-5.878-10.604-7.758-16.41c-2.275-7.023-3.506-14.274-4.589-21.545
		c-2.259-15.175-4.572-30.344-6.557-45.556c-1.655-12.677-3.038-25.396-4.247-38.123c-1.617-17.023-3.067-34.063-4.357-51.115
		c-0.759-10.038-1.143-20.105-1.56-30.165c-0.418-10.06-0.727-20.123-0.976-30.188c-0.335-13.582-0.566-27.166-0.843-40.75
		C408.864,423.081,409.016,423.08,409.168,423.078z"/>
	<path fill-rule="evenodd" clip-rule="evenodd" fill="#FFFFFF" d="M601.84,474.296c0.131-4.724,1.086-8.921,2.38-13.047
		c2.595-8.273,6.356-16.021,10.675-23.514c5.764-10.003,12.296-19.45,20.239-27.867c1.313-1.393,2.748-2.67,4.074-4.049
		c4.693-4.878,10.558-7.098,17.179-7.354c2.358-0.091,4.799,0.158,7.098,0.697c4.567,1.068,6.992,4.208,7.511,8.827
		c0.342,3.048,0.029,6.043-0.677,9.028c-1.408,5.953-3.726,11.566-6.539,16.951c-8.796,16.832-19.766,32.106-33.367,45.396
		c-2.952,2.884-6.344,5.35-9.7,7.776c-2.403,1.737-5.17,2.172-8.203,1.532c-5.86-1.233-9.289-4.504-10.366-10.452
		C601.888,476.817,601.916,475.361,601.84,474.296z"/>
	<path fill-rule="evenodd" clip-rule="evenodd" fill="#FFFFFF" d="M596.425,611.272c-6.578,0.117-13.427-0.347-20.19-1.732
		c-1.402-0.287-2.816-0.648-4.135-1.193c-3.495-1.448-4.754-3.861-4.233-7.633c0.378-2.744,1.343-5.296,2.767-7.613
		c2.089-3.401,4.212-6.809,6.642-9.967c6.751-8.775,14.654-16.446,22.869-23.858c4.482-4.044,8.894-4.3,14.046-1.907
		c6.655,3.09,12.202,7.56,16.938,13.098c3.139,3.67,5.661,7.72,7.516,12.197c1.565,3.781,2.082,7.696,1.798,11.74
		c-0.407,5.804-3.015,10.096-8.734,11.934c-3.642,1.171-7.349,2.264-11.108,2.92C612.719,610.634,604.759,611.376,596.425,611.272z"
		/>
	<path fill-rule="evenodd" clip-rule="evenodd" fill="#FFFFFF" d="M569.766,503.919c7.755-0.224,10.84,4.838,10.507,12.224
		c-0.208,4.623-1.397,9.125-2.932,13.52c-3.601,10.307-8.686,19.862-14.55,29.025c-4.138,6.462-8.679,12.626-13.909,18.258
		c-2.724,2.931-5.701,5.55-9.076,7.744c-3.324,2.161-6.546,2.036-9.933,0.237c-4.608-2.446-7.08-6.287-7.68-11.4
		c-0.491-4.199,0.271-8.269,1.393-12.286c1.595-5.713,3.943-11.126,6.765-16.325c6.812-12.555,14.999-24.106,25.268-34.104
		c1.142-1.112,2.352-2.154,3.555-3.201C562.209,504.968,565.788,503.866,569.766,503.919z"/>
	<path fill-rule="evenodd" clip-rule="evenodd" fill="#FFFFFF" d="M678.501,477.094c0.367,5.396,0.849,10.939,1.089,16.493
		c0.179,4.137,0.15,8.292,0.017,12.432c-0.098,3.021-0.448,6.037-0.81,9.041c-0.437,3.629-0.797,7.262-1.146,10.897
		c-0.867,9.069-2.85,17.967-6.808,26.265c-1.015,2.126-2.412,4.167-4.015,5.893c-2.86,3.08-6.514,3.357-9.894,0.821
		c-1.629-1.224-3.059-2.803-4.294-4.438c-3.607-4.777-5.767-10.286-7.43-15.971c-2.758-9.425-3.87-19.055-3.074-28.865
		c0.548-6.747,2.1-13.219,5.535-19.141c4.439-7.648,10.987-12.27,19.73-13.686c2.197-0.355,4.425-0.576,6.647-0.723
		C675.466,476.02,676.92,476.067,678.501,477.094z"/>
	<path fill-rule="evenodd" clip-rule="evenodd" fill="#FFFFFF" d="M570.121,433.84c-3.262,0.156-6.292-0.784-9.072-2.451
		c-4.958-2.976-8.491-7.227-10.462-12.65c-1.61-4.433-1.229-8.769,1.312-12.843c1.98-3.174,4.674-5.621,7.689-7.765
		c6.373-4.529,13.632-6.845,21.156-8.49c3.596-0.786,7.243-1.388,10.917-0.991c2.187,0.236,4.419,0.727,6.45,1.55
		c3.572,1.449,5.33,4.39,5.67,8.194c0.261,2.914-0.17,5.763-1.229,8.455c-4.256,10.812-11.46,19.055-21.82,24.396
		C577.453,432.936,573.925,433.97,570.121,433.84z"/>
	<path fill-rule="evenodd" clip-rule="evenodd" fill="#FFFFFF" d="M516.301,479.103c0.016-11.051,1.332-21.95,3.823-32.711
		c0.287-1.24,0.705-2.45,1.001-3.689c1.024-4.29,4.006-6.771,7.844-8.386c3.107-1.307,5.991-0.755,8.345,1.658
		c1.098,1.126,2.108,2.443,2.779,3.854c1.09,2.291,2.143,4.664,2.731,7.118c3.614,15.075,3.118,30.045-1.592,44.833
		c-0.972,3.05-2.384,5.911-4.366,8.465c-5.218,6.72-11.419,5.232-16.276,1.356c-1.839-1.469-2.599-3.675-3.002-5.854
		c-0.609-3.281-0.975-6.617-1.252-9.946C516.151,483.582,516.301,481.336,516.301,479.103z"/>
</g>
</svg>
